# xmcd CD database file
#
# Track frame offsets:
#	150
#	16012
#	30449
#	45647
#	60339
#	76287
#	90987
#	107152
#	123099
#	133665
#	144325
#	163958
#	181154
#	199182
#	217043
#	234224
#	254583
#	267579
#	282385
#	294935
#
# Disc length: 4179 seconds
#
# Revision: 0
# Processed by: cddbd v1.5.1PL0 Copyright (c) Steve Scherf et al.
# Submitted via: CDex 1.51
#
DISCID=14105114
DTITLE=Cedo Antolic - Jutro
DYEAR=2005
DGENRE=Blues
TTITLE0=Divota Vjeèna
TTITLE1=Jezus
TTITLE2=Putnik
TTITLE3=Izvor
TTITLE4=Tu Je Sve
TTITLE5=U Tvojoj Milosti
TTITLE6=Gospodine
TTITLE7=Majka Bozija
TTITLE8=Slava
TTITLE9=Zornica
TTITLE10=Pjesnik
TTITLE11=Jutro
TTITLE12=Zasto
TTITLE13=Sam na ulici
TTITLE14=Put med zvezdanim
TTITLE15=Zajedno
TTITLE16=Nije Me Strah
TTITLE17=Put kojim hodas
TTITLE18=Proljece
TTITLE19=Hrid
EXTD=YEAR: 2005
EXTT0=
EXTT1=
EXTT2=
EXTT3=
EXTT4=
EXTT5=
EXTT6=
EXTT7=
EXTT8=
EXTT9=
EXTT10=
EXTT11=
EXTT12=
EXTT13=
EXTT14=
EXTT15=
EXTT16=
EXTT17=
EXTT18=
EXTT19=
PLAYORDER=
